<svg xmlns="http://www.w3.org/2000/svg" height="800" width="1200" viewBox="-38.0376 -63.1255 329.6592 378.753"><path d="M126.806 252.502l35.476-199.519c33.815 0 44.481 3.708 46.021 18.843 0 0 22.684-8.458 34.125-25.636-44.646-20.688-89.505-21.621-89.505-21.621l-26.176 31.882.059-.004-26.176-31.883s-44.86.934-89.5 21.622c11.431 17.178 34.124 25.636 34.124 25.636 1.549-15.136 12.202-18.844 45.79-18.868l35.762 199.548"/><path d="M126.792 15.36c36.09-.276 77.399 5.583 119.687 24.014 5.652-10.173 7.105-14.669 7.105-14.669C207.357 6.416 164.066.157 126.787 0 89.51.157 46.221 6.417 0 24.705c0 0 2.062 5.538 7.1 14.669 42.28-18.431 83.596-24.29 119.687-24.014h.005"/></svg>